<?xml version="1.0" standalone="no"?><!DOCTYPE svg PUBLIC "-//W3C//DTD SVG 1.1//EN" "http://www.w3.org/Graphics/SVG/1.1/DTD/svg11.dtd"><svg t="1589095377102" class="icon" viewBox="0 0 1024 1024" version="1.1" xmlns="http://www.w3.org/2000/svg" p-id="22130" width="32" height="32" xmlns:xlink="http://www.w3.org/1999/xlink"><defs><style type="text/css"></style></defs><path d="M512 853.333333l147.626667-256h-0.426667c14.506667-25.6 23.466667-54.186667 23.466667-85.333333 0-51.2-23.04-96.853333-58.88-128h204.373333c16.213333 39.68 25.173333 82.773333 25.173333 128a341.333333 341.333333 0 0 1-341.333333 341.333333m-341.333333-341.333333c0-62.293333 16.64-120.32 45.653333-170.666667l148.053333 256h0.426667c29.44 50.773333 83.2 85.333333 147.2 85.333334 19.2 0 37.546667-3.84 55.04-9.813334l-102.4 176.64C298.666667 826.453333 170.666667 684.373333 170.666667 512m469.333333 0a128 128 0 0 1-128 128 128 128 0 0 1-128-128 128 128 0 0 1 128-128 128 128 0 0 1 128 128m-128-341.333333a340.48 340.48 0 0 1 295.253333 170.666666H512c-82.773333 0-151.466667 58.88-167.253333 136.96L243.2 302.08A340.522667 340.522667 0 0 1 512 170.666667m0-85.333334A426.666667 426.666667 0 0 0 85.333333 512a426.666667 426.666667 0 0 0 426.666667 426.666667 426.666667 426.666667 0 0 0 426.666667-426.666667A426.666667 426.666667 0 0 0 512 85.333333z" fill="#666666" p-id="22131"></path></svg>