<?xml version="1.0" standalone="no"?><!DOCTYPE svg PUBLIC "-//W3C//DTD SVG 1.1//EN" "http://www.w3.org/Graphics/SVG/1.1/DTD/svg11.dtd"><svg t="1589095238836" class="icon" viewBox="0 0 1024 1024" version="1.1" xmlns="http://www.w3.org/2000/svg" p-id="21422" width="32" height="32" xmlns:xlink="http://www.w3.org/1999/xlink"><defs><style type="text/css"></style></defs><path d="M682.666667 256h-128v81.066667h128a174.933333 174.933333 0 0 1 174.933333 174.933333 174.933333 174.933333 0 0 1-174.933333 174.933333h-128V768h128a256 256 0 0 0 256-256c0-141.653333-114.773333-256-256-256M166.4 512A174.933333 174.933333 0 0 1 341.333333 337.066667h128V256H341.333333a256 256 0 0 0-256 256 256 256 0 0 0 256 256h128v-81.066667H341.333333c-96.426667 0-174.933333-78.506667-174.933333-174.933333M341.333333 554.666667h341.333334v-85.333334H341.333333v85.333334z" fill="#666666" p-id="21423"></path></svg>